<svg xmlns="http://www.w3.org/2000/svg" aria-hidden="true" style="position:absolute;width:0;height:0;overflow:hidden">
    <defs>
        <symbol id="icon-chevron-down" viewBox="0 0 32 32">
            <path d="M21.724 11.057 16 16.781l-5.724-5.724-1.885 1.885L16 20.551l7.609-7.609-1.885-1.885z"/>
        </symbol>
        <symbol id="icon-chevron-left" viewBox="0 0 32 32">
            <path d="M17.724 8.391 10.115 16l7.609 7.609 1.885-1.885L13.885 16l5.724-5.724-1.885-1.885z"/>
        </symbol>
        <symbol id="icon-chevron-right" viewBox="0 0 32 32">
            <path d="m12.943 22.599 7.609-7.609-7.609-7.609-1.885 1.885 5.724 5.724-5.724 5.724 1.885 1.885z"/>
        </symbol>
        <symbol id="icon-chevron-up" viewBox="0 0 32 32">
            <path d="m8.391 19.057 1.885 1.885L16 15.218l5.724 5.724 1.885-1.885L16 11.448l-7.609 7.609z"/>
        </symbol>
        <symbol id="icon-down-arrow-alt" viewBox="0 0 32 32">
            <path d="m24.943 16.943-1.885-1.885-5.724 5.724V8.001h-2.667v12.781l-5.724-5.724-1.885 1.885 8.943 8.943 8.943-8.943z"/>
        </symbol>
        <symbol id="icon-Facebook" viewBox="0 0 32 32">
            <path d="M29.333 16.405C29.333 8.996 23.364 2.99 16 2.99S2.667 8.996 2.667 16.405c0 6.696 4.876 12.245 11.25 13.252v-9.374h-3.385v-3.878h3.385V13.45c0-3.362 1.991-5.219 5.036-5.219 1.459 0 2.985.262 2.985.262v3.301h-1.681c-1.656 0-2.173 1.034-2.173 2.095v2.516h3.698l-.591 3.878h-3.107v9.374c6.374-1.006 11.25-6.556 11.25-13.252z"/>
        </symbol>
        <symbol id="icon-Instagram" viewBox="0 0 32 32">
            <path d="M15.998 6.161c3.206 0 3.585.014 4.846.071 1.172.052 1.804.248 2.226.412.558.216.961.478 1.378.895.422.422.679.82.9 1.378.164.422.361 1.059.412 2.226.056 1.266.071 1.645.071 4.847s-.014 3.585-.071 4.847c-.052 1.172-.248 1.804-.412 2.227a3.702 3.702 0 0 1-.895 1.377c-.422.422-.82.679-1.378.9-.422.164-1.06.361-2.226.412-1.266.056-1.645.071-4.847.071s-3.585-.014-4.847-.071c-1.172-.052-1.804-.248-2.226-.412a3.714 3.714 0 0 1-1.378-.895 3.767 3.767 0 0 1-.9-1.378c-.164-.422-.361-1.06-.412-2.226-.056-1.266-.071-1.645-.071-4.847s.014-3.585.071-4.847c.052-1.172.248-1.804.412-2.226.216-.558.478-.961.895-1.378.422-.422.82-.679 1.378-.9.422-.164 1.059-.361 2.226-.412 1.261-.056 1.641-.071 4.847-.071h.001zm0-2.16c-3.258 0-3.665.014-4.945.071-1.275.056-2.151.262-2.91.558a5.847 5.847 0 0 0-2.127 1.387A5.883 5.883 0 0 0 4.629 8.14c-.295.764-.502 1.636-.558 2.91C4.015 12.335 4 12.742 4 15.999s.014 3.665.071 4.945c.056 1.275.262 2.151.558 2.91a5.86 5.86 0 0 0 1.387 2.127 5.876 5.876 0 0 0 2.123 1.383c.764.295 1.636.502 2.91.558 1.279.056 1.687.071 4.945.071s3.666-.014 4.945-.071c1.275-.056 2.151-.262 2.91-.558.787-.305 1.458-.717 2.123-1.383s1.078-1.336 1.383-2.123c.295-.764.502-1.635.558-2.91.056-1.279.071-1.687.071-4.945s-.014-3.665-.071-4.945c-.056-1.275-.262-2.151-.558-2.91a5.622 5.622 0 0 0-1.373-2.133 5.876 5.876 0 0 0-2.123-1.383c-.764-.295-1.635-.502-2.91-.558-1.284-.061-1.692-.075-4.949-.075L15.999 4z"/>
            <path d="M15.998 9.836a6.164 6.164 0 1 0 6.163 6.163 6.164 6.164 0 0 0-6.163-6.163zm0 10.161a3.998 3.998 0 1 1 0-7.996 3.998 3.998 0 0 1 0 7.996zM23.843 9.592a1.439 1.439 0 1 1-2.877 0 1.439 1.439 0 0 1 2.877 0z"/>
        </symbol>
        <symbol id="icon-left-arrow-alt" viewBox="0 0 32 32">
            <path d="m16.943 23.057-5.724-5.724H24v-2.667H11.219l5.724-5.724-1.885-1.885L6.115 16l8.943 8.943 1.885-1.885z"/>
        </symbol>
        <symbol id="icon-burger-menu" viewBox="0 0 32 32">
            <path d="M5.333 8h21.333v2.667H5.333V8zm0 6.667h21.333v2.667H5.333v-2.667zm0 6.666h21.333V24H5.333v-2.667z"/>
        </symbol>
        <symbol id="icon-minus" viewBox="0 0 32 32">
            <path d="M6.667 14.667h18.667v2.667H6.667v-2.667z"/>
        </symbol>
        <symbol id="icon-plus" viewBox="0 0 32 32">
            <path d="M25.333 14.667h-8v-8h-2.667v8h-8v2.667h8v8h2.667v-8h8v-2.667z"/>
        </symbol>
        <symbol id="icon-right-arrow-alt" viewBox="0 0 32 32">
            <path d="m15.057 23.057 1.885 1.885 8.943-8.943-8.943-8.943-1.885 1.885 5.724 5.724H8v2.667h12.781l-5.724 5.724z"/>
        </symbol>
        <symbol id="icon-star" viewBox="0 0 32 32">
            <path d="M8.688 19.097 6.701 27.7a1.326 1.326 0 0 0 .538 1.4 1.327 1.327 0 0 0 1.501.009l7.26-4.84 7.26 4.84a1.333 1.333 0 0 0 1.525-.034 1.34 1.34 0 0 0 .498-1.441l-2.439-8.533 6.048-5.443a1.332 1.332 0 0 0-.073-2.043 1.339 1.339 0 0 0-.714-.277l-7.601-.605-3.289-7.281A1.327 1.327 0 0 0 16 2.665a1.33 1.33 0 0 0-1.215.787l-3.289 7.281-7.601.604a1.333 1.333 0 0 0-.825 2.284l5.619 5.476zm3.804-5.768a1.329 1.329 0 0 0 1.11-.782l2.399-5.308 2.399 5.308a1.33 1.33 0 0 0 1.11.782l5.296.42-4.361 3.925a1.336 1.336 0 0 0-.391 1.357l1.671 5.847-4.981-3.321a1.325 1.325 0 0 0-1.478 0l-5.205 3.471 1.4-6.061a1.343 1.343 0 0 0-.368-1.254l-4.051-3.949 5.453-.435z"/>
        </symbol>
        <symbol id="icon-up-arrow-alt" viewBox="0 0 32 32">
            <path d="M14.667 11.219V24h2.667V11.219l5.724 5.724 1.885-1.885L16 6.115l-8.943 8.943 1.885 1.885 5.724-5.724z"/>
        </symbol>
        <symbol id="icon-close" viewBox="0 0 32 32">
            <path d="m21.589 8.459-5.657 5.656-5.656-5.656-1.885 1.885L14.047 16l-5.656 5.656 1.885 1.885 5.656-5.656 5.657 5.656 1.885-1.885L17.818 16l5.656-5.656-1.885-1.885z"/>
        </symbol>
        <symbol id="icon-Youtube" viewBox="0 0 32 32">
            <path d="M28.791 9.604a3.345 3.345 0 0 0-2.35-2.354C24.353 6.677 16 6.667 16 6.667s-8.352-.009-10.441.539a3.416 3.416 0 0 0-2.354 2.371c-.551 2.088-.556 6.419-.556 6.419s-.005 4.352.541 6.419a3.341 3.341 0 0 0 2.351 2.353c2.109.573 10.44.583 10.44.583s8.353.009 10.441-.537a3.356 3.356 0 0 0 2.356-2.35c.552-2.087.556-6.416.556-6.416s.027-4.353-.543-6.441zM13.328 20.007l.007-8 6.943 4.007-6.949 3.993z"/>
        </symbol>
        <symbol id="icon-youtube" viewBox="0 0 32 32">
            <path d="M28.791 9.604a3.345 3.345 0 0 0-2.35-2.354C24.353 6.677 16 6.667 16 6.667s-8.352-.009-10.441.539a3.416 3.416 0 0 0-2.354 2.371c-.551 2.088-.556 6.419-.556 6.419s-.005 4.352.541 6.419a3.341 3.341 0 0 0 2.351 2.353c2.109.573 10.44.583 10.44.583s8.353.009 10.441-.537a3.356 3.356 0 0 0 2.356-2.35c.552-2.087.556-6.416.556-6.416s.027-4.353-.543-6.441zM13.328 20.007l.007-8 6.943 4.007-6.949 3.993z"/>
        </symbol>
        <symbol id="icon-instagram" viewBox="0 0 32 32">
            <path d="M15.998 6.161c3.206 0 3.585.014 4.846.071 1.172.052 1.804.248 2.226.412.558.216.961.478 1.378.895.422.422.679.82.9 1.378.164.422.361 1.059.412 2.226.056 1.266.071 1.645.071 4.847s-.014 3.585-.071 4.847c-.052 1.172-.248 1.804-.412 2.227a3.702 3.702 0 0 1-.895 1.377c-.422.422-.82.679-1.378.9-.422.164-1.06.361-2.226.412-1.266.056-1.645.071-4.847.071s-3.585-.014-4.847-.071c-1.172-.052-1.804-.248-2.226-.412a3.714 3.714 0 0 1-1.378-.895 3.767 3.767 0 0 1-.9-1.378c-.164-.422-.361-1.06-.412-2.226-.056-1.266-.071-1.645-.071-4.847s.014-3.585.071-4.847c.052-1.172.248-1.804.412-2.226.216-.558.478-.961.895-1.378.422-.422.82-.679 1.378-.9.422-.164 1.059-.361 2.226-.412 1.261-.056 1.641-.071 4.847-.071h.001zm0-2.16c-3.258 0-3.665.014-4.945.071-1.275.056-2.151.262-2.91.558a5.847 5.847 0 0 0-2.127 1.387A5.883 5.883 0 0 0 4.629 8.14c-.295.764-.502 1.636-.558 2.91C4.015 12.335 4 12.742 4 15.999s.014 3.665.071 4.945c.056 1.275.262 2.151.558 2.91a5.86 5.86 0 0 0 1.387 2.127 5.876 5.876 0 0 0 2.123 1.383c.764.295 1.636.502 2.91.558 1.279.056 1.687.071 4.945.071s3.666-.014 4.945-.071c1.275-.056 2.151-.262 2.91-.558.787-.305 1.458-.717 2.123-1.383s1.078-1.336 1.383-2.123c.295-.764.502-1.635.558-2.91.056-1.279.071-1.687.071-4.945s-.014-3.665-.071-4.945c-.056-1.275-.262-2.151-.558-2.91a5.622 5.622 0 0 0-1.373-2.133 5.876 5.876 0 0 0-2.123-1.383c-.764-.295-1.635-.502-2.91-.558-1.284-.061-1.692-.075-4.949-.075L15.999 4z"/>
            <path d="M15.998 9.836a6.164 6.164 0 1 0 6.163 6.163 6.164 6.164 0 0 0-6.163-6.163zm0 10.161a3.998 3.998 0 1 1 0-7.996 3.998 3.998 0 0 1 0 7.996zM23.843 9.592a1.439 1.439 0 1 1-2.877 0 1.439 1.439 0 0 1 2.877 0z"/>
        </symbol>
        <symbol id="icon-facebook" viewBox="0 0 32 32">
            <path d="M29.333 16.405C29.333 8.996 23.364 2.99 16 2.99S2.667 8.996 2.667 16.405c0 6.696 4.876 12.245 11.25 13.252v-9.374h-3.385v-3.878h3.385V13.45c0-3.362 1.991-5.219 5.036-5.219 1.459 0 2.985.262 2.985.262v3.301h-1.681c-1.656 0-2.173 1.034-2.173 2.095v2.516h3.698l-.591 3.878h-3.107v9.374c6.374-1.006 11.25-6.556 11.25-13.252z"/>
        </symbol>
        <symbol id="icon-logo" viewBox="0 0 387 86">
            <path fill="#fff" d="M49.127 49.735c0 8.417-2.162 15.145-6.486 20.183S33.073 76.8 25.893 76.8c-6.953 0-12.58-2.294-16.882-6.883s-6.452-10.906-6.452-18.944c0-8.417 2.133-15.174 6.4-20.269S18.552 24 25.733 24c6.952 0 12.58 2.295 16.882 6.883s6.512 10.898 6.512 18.935v-.083zm-9.502.457c0-5.985-1.386-10.716-4.158-14.192-2.772-3.477-6.435-5.215-10.99-5.215-4.642 0-8.338 1.738-11.087 5.215s-4.125 8.194-4.125 14.166c0 5.886 1.386 10.554 4.158 14.003s6.454 5.174 11.106 5.174c4.622 0 8.287-1.725 10.99-5.174s4.106-8.134 4.106-14.011v.034zM85.109 75.823V51.766c0-3.851-.8-6.842-2.4-8.971-1.6-2.13-4.095-3.195-7.486-3.195-4.474 0-7.745 1.371-9.812 4.114s-3.103 7.103-3.103 13.051v19.066h-8.906V32.537h6.903l1.406 5.908h.417c1.466-2.129 3.497-3.78 6.092-4.954 2.594-1.174 5.451-1.76 8.571-1.76 5.52 0 9.655 1.362 12.403 4.085s4.123 7.26 4.123 13.611v26.397h-8.208zm42.343-33.943c1.257 0 2.4.088 3.428.263l-.617 8.285a14.923 14.923 0 0 0-3.052-.32c-4.891 0-8.628 1.251-11.211 3.754s-3.875 6.08-3.875 10.743v11.217h-8.905V32.537h6.902l.96 7.886h.417c1.665-2.72 3.829-4.903 6.495-6.551s5.664-2.472 9.001-2.472l-.543.48zm31.531 0c5.749 0 10.135 1.586 13.157 4.757s4.532 7.812 4.532 13.92v14.743c0 1.314.046 2.737.137 4.269s.269 2.857.537 3.971h-6.423l-.994-5.451h-.274c-1.954 2.129-4.251 3.754-6.892 4.874s-5.717 1.68-9.223 1.68c-4.583 0-8.269-1.28-11.057-3.84s-4.183-6.137-4.183-10.743c0-6.206 2.223-10.709 6.669-13.509s11.194-4.331 20.3-4.446l3.703-.08v-1.006c0-3.68-.754-6.32-2.263-7.92s-3.949-2.4-7.326-2.4c-2.32 0-4.486.309-6.497.926s-3.897 1.411-5.663 2.383l-2.606-6.283c2.16-1.2 4.623-2.154 7.394-2.863s5.594-1.063 8.474-1.063l-.102.091zm6.686 17.691-2.811.08c-6.086.171-10.446 1.183-13.08 3.034s-3.952 4.737-3.952 8.651c0 2.846.72 4.983 2.16 6.412s3.497 2.143 6.177 2.143c4.206 0 7.56-1.131 10.063-3.394s3.754-5.383 3.754-9.383l-.311-7.543zm-10.909-21.303c-.277-.274-.477-.64-.6-1.097s-.206-.897-.251-1.32l-.503-7.451h7.2l-.606 7.177c-.046.503-.131 1.051-.257 1.646s-.32.891-.583 1.137l-4.4-.091z"/>
            <path fill="#A87143" d="M296.8 24.686l-10.903 51.04h-9.966l-6.789-29.509c-.183-.777-.309-1.863-.377-3.257s-.12-2.6-.154-3.617h-.309c-.034 1.257-.086 2.531-.154 3.823s-.166 2.297-.297 3.017l-6.503 29.543h-9.966l-11.143-51.04h9.88l5.571 30.171c.103.549.206 1.332.309 2.349s.18 1.943.229 2.777.091 1.657.126 2.469h.297c.023-.915.063-1.76.12-2.537s.137-1.694.24-2.754.217-1.789.343-2.189l6.892-30.286h8.926l6.354 30.171c.114.549.223 1.303.326 2.263s.189 1.892.257 2.794.109 1.743.12 2.52h.297c.023-.743.074-1.554.154-2.434s.177-1.811.291-2.794.223-1.789.326-2.417l5.691-30.171 9.76.068zm37.611 1.594c2.606 0 4.889.354 6.849 1.063s3.597 1.74 4.903 3.091 2.274 3.017 2.914 5s.96 4.26.96 6.84c0 .731-.028 1.446-.085 2.143s-.126 1.297-.206 1.8h-26.063c.16 4.32 1.309 7.577 3.446 9.771s5.274 3.291 9.411 3.291c1.989 0 3.829-.206 5.52-.617s3.349-.994 4.971-1.749l2.84 6.171c-1.829 1.006-3.917 1.857-6.263 2.554s-4.963 1.046-7.849 1.046c-3.646 0-6.837-.611-9.571-1.834s-4.989-2.897-6.757-5.029-3.091-4.651-3.969-7.566-1.314-6.063-1.314-9.434c0-3.32.463-6.386 1.389-9.2s2.266-5.246 4.017-7.291 3.857-3.651 6.303-4.823 5.211-1.76 8.303-1.76l.251.537zm.411 7.657c-3.223 0-5.749 1.029-7.577 3.086s-2.926 4.851-3.28 8.377h20.057c0-3.577-.726-6.377-2.177-8.4s-3.674-3.034-6.657-3.034l-.366-.029zm51.503-8.16c5.283 0 9.411 1.731 12.383 5.194s4.457 8.4 4.457 14.811c0 3.337-.454 6.36-1.363 9.074s-2.249 5.04-4.017 6.971-3.937 3.411-6.503 4.446-5.486 1.554-8.754 1.554c-2.891 0-5.337-.354-7.337-1.063l.223 6.743v14.743h-8.906V26.663h7.246l.823 5.223h.309c1.611-1.92 3.537-3.423 5.777-4.509s4.783-1.628 7.626-1.628l-.114-.072zm-2.794 7.829c-3.891 0-6.703 1.143-8.434 3.428s-2.657 5.829-2.731 10.651v1.354c0 5.143.754 8.946 2.263 11.411s4.251 3.697 8.206 3.697c3.509 0 6.189-1.411 8.04-4.234s2.777-6.766 2.777-11.823c0-4.8-.806-8.434-2.417-10.903s-4.131-3.703-7.543-3.703l-.16.12zm49.588 38.08V44.817c0-3.611-.72-6.377-2.16-8.297s-3.8-2.88-7.086-2.88c-4.223 0-7.223 1.28-9 3.84s-2.666 6.646-2.666 12.286v19.92h-8.903V7.2h8.903v19.2c0 .732-.034 1.714-.103 2.949s-.149 2.189-.24 2.863h.514c1.32-1.92 3.137-3.411 5.451-4.474s4.877-1.594 7.691-1.594c5.331 0 9.251 1.354 11.754 4.063s3.754 7.211 3.754 13.509v26.971h-7.909zm21.994-24.777c.286 4.286 1.732 7.417 4.337 9.394s6.646 2.966 12.12 2.966c2.114 0 4.137-.18 6.069-.543s3.806-.811 5.623-1.349l2.606 6.743c-2.04.731-4.309 1.354-6.806 1.869s-5.246.771-8.251.771c-3.851 0-7.194-.589-10.029-1.766s-5.183-2.811-7.029-4.903-3.211-4.606-4.109-7.543-1.346-6.194-1.346-9.754c0-3.414.486-6.549 1.457-9.406s2.377-5.303 4.206-7.337 4.08-3.611 6.754-4.731 5.68-1.68 9.017-1.68c2.891 0 5.526.474 7.903 1.423s4.406 2.309 6.086 4.08 2.983 3.911 3.909 6.423 1.389 5.354 1.389 8.537c0 .777-.029 1.571-.086 2.383s-.126 1.537-.206 2.177l-33.623.897zm12.314-18.274c-3.017 0-5.497 1-7.44 3s-3.131 4.777-3.557 8.343l21.566-.571c0-3.749-.766-6.589-2.297-8.52s-3.726-2.891-6.583-2.891l-.309.64h.62z"/>
            <path fill="#fff" d="M213.943 75.811h-8.514v-7.405l-4.651-24.326c-.263-1.354-.474-2.851-.634-4.491s-.263-3.2-.32-4.68h-.257c-.057 1.48-.16 3.04-.309 4.68s-.354 3.143-.617 4.491l-4.774 24.343v7.389h-8.394v-7.337l10.594-42.223h6.411l10.468 42.04v7.52h-.002z"/>
        </symbol>
        <symbol id="icon-logo-footer" viewBox="0 0 221 50">
            <g clip-path="url(#clip0_10210_407_footer)">
                <path d="M22.4509 0.754555C35.8692 -0.497476 47.7587 9.37298 48.9969 22.7926C50.2352 36.2127 40.3528 48.0914 26.9319 49.3159C13.5304 50.5391 1.67181 40.6739 0.435298 27.2733C-0.801085 13.8733 9.05189 2.00463 22.4509 0.754555ZM27.3165 46.7352C39.2956 45.2968 47.8382 34.4157 46.3927 22.438C44.9473 10.4598 34.0613 1.92391 22.084 3.37703C10.1174 4.82871 1.59096 15.7028 3.03508 27.6698C4.47933 39.6385 15.3479 48.1709 27.3165 46.7352Z" fill="white"/>
                <path d="M34.2599 12.3449L37.0667 12.3257C37.1212 20.4265 37.1251 28.5279 37.0788 36.6287L34.1765 36.6652L34.1722 21.4442L34.1589 17.2762C32.5378 20.3527 30.6973 23.3103 28.9438 26.3123C27.8324 28.2149 26.8001 30.3979 25.4247 32.1088C25.0966 32.2288 24.7407 32.2379 24.3989 32.1597C24.2872 32.1336 24.0532 32.0462 23.9683 31.9784C23.2264 31.3864 16.2504 19.1316 15.1363 17.2732C15.4223 19.4769 15.2426 21.8815 15.2414 24.1061L15.2329 36.6053L12.2651 36.6157C12.3571 28.5279 12.2119 20.4343 12.2895 12.3447L15.5213 12.3615C16.9583 14.9309 18.4999 17.4466 19.9901 19.9857C21.5738 22.6841 23.1159 25.4151 24.7984 28.0532C26.5101 24.9274 28.4242 21.8978 30.2642 18.8443C31.5675 16.6816 32.7996 14.4041 34.2599 12.3449Z" fill="white"/>
                <path d="M182.867 18.1168C183.439 18.0784 184.027 18.0632 184.601 18.0734C186.741 18.1116 188.927 19.2558 190.391 20.7727C192.217 22.6628 193.065 25.299 193.003 27.8993C192.942 30.5452 191.95 33.0607 190.003 34.876C188.276 36.4839 186.064 37.3446 183.699 37.2559C180.99 37.1542 179.195 36.0131 177.378 34.074C177.308 35.1837 177.328 36.3065 177.318 37.4189C177.33 39.628 177.327 41.8371 177.309 44.0475C176.279 44.1492 175.241 44.14 174.212 44.0188C174.38 40.5982 174.231 37.0955 174.233 33.6658C174.233 28.5643 174.313 23.4491 174.199 18.3493L177.263 18.3373C177.203 19.4754 177.218 20.6251 177.201 21.7651C178.861 19.6932 180.246 18.6943 182.867 18.1168ZM184.194 34.5187C186.1 34.1614 187.576 33.3841 188.693 31.7397C189.788 30.1031 190.18 28.0962 189.782 26.1688C189.441 24.451 188.423 22.8276 186.928 21.889C185.75 21.1501 184.476 20.947 183.116 20.9855C181.228 21.3424 179.697 22.0149 178.565 23.661C177.498 25.2116 177.039 27.4194 177.399 29.2633C177.741 31.0342 178.79 32.5887 180.307 33.5641C181.516 34.3244 182.793 34.5435 184.194 34.5187Z" fill="white"/>
                <path d="M125.682 10.4316C126.182 10.9449 126.337 12.2993 126.634 13.0246C123.418 14.3743 118.756 14.0968 116.17 16.567C114.624 18.0448 114.255 20.088 114.222 22.1244C115.606 20.4154 117.122 19.0306 119.391 18.6514C121.684 18.268 124.113 18.7115 125.994 20.1109C128.014 21.6146 129.138 23.7945 129.476 26.2636C129.863 29.1013 129.156 31.7772 127.415 34.0437C126.154 35.4429 124.687 36.477 122.839 36.9295C120.5 37.5033 117.829 37.206 115.767 35.9267C113.416 34.4662 112.063 32.0563 111.476 29.4051C110.599 25.4434 110.771 19.5225 113.055 16.006C115.068 12.9038 118.109 12.2895 121.488 11.486C122.891 11.1523 124.275 10.7416 125.682 10.4316ZM120.335 34.5366C122.327 34.2419 123.808 33.7646 125.046 32.0537C126.26 30.3766 126.652 28.2588 126.275 26.2428C125.972 24.6158 125.115 23.1277 123.718 22.2071C122.863 21.6415 121.87 21.3174 120.845 21.2689C118.908 21.4855 117.314 21.8869 116.024 23.4851C114.814 24.9856 114.296 27.0122 114.564 28.9135C114.808 30.6479 115.756 32.3171 117.18 33.3512C118.143 34.0502 119.177 34.3566 120.335 34.5366Z" fill="white"/>
                <path d="M82.11 11.6656C83.242 11.552 84.4198 11.6064 85.5584 11.5985C85.4048 19.9339 85.5881 28.2937 85.5403 36.6332L82.5385 36.6032L82.5432 21.8577C82.5349 20.1683 82.4997 18.4753 82.6033 16.7882C79.8368 21.8976 77.3409 27.2309 74.3109 32.1851L72.3604 32.1746C69.3759 27.2818 66.8922 22.0095 64.1324 16.9816C64.2404 19.2874 64.1674 21.6287 64.1689 23.9379L64.1756 36.6345C63.1748 36.6084 62.178 36.6736 61.176 36.6267L61.1774 21.4379C61.1795 18.1729 61.1156 14.8874 61.2945 11.6269L64.6343 11.6287C65.5837 13.2565 66.3905 15.0006 67.253 16.6774C69.254 20.567 71.2346 24.4989 73.3932 28.3029C76.5657 22.9236 79.0771 17.1294 82.11 11.6656Z" fill="white"/>
                <path d="M97.5485 18.1225C98.0066 18.098 98.4651 18.0807 98.9238 18.0705C101.327 18.0311 103.722 18.6868 105.454 20.4283C107.772 22.7578 108.003 25.6937 108.003 28.796C103.001 28.8599 97.9911 28.7921 92.9875 28.8143C93.1418 29.6398 93.2971 30.43 93.6899 31.1838C94.472 32.6913 95.8292 33.8193 97.4542 34.3122C99.3992 34.9017 101.356 34.5561 103.105 33.5911C103.692 33.192 104.229 32.7252 104.775 32.274C105.561 32.7226 106.355 33.0968 107.185 33.4555C105.951 35.1207 104.359 36.3348 102.345 36.8865C99.7663 37.592 96.6233 37.3155 94.3003 35.9488C92.2635 34.7478 90.8022 32.7708 90.252 30.4718C89.5658 27.7071 89.9491 24.6833 91.4491 22.2516C92.8951 19.9077 94.9241 18.7494 97.5485 18.1225ZM93.0196 26.4592C95.4975 26.4396 97.9755 26.4318 100.453 26.4383L105.085 26.4409C104.633 24.5401 104.181 22.778 102.412 21.6653C101.118 20.851 99.5485 20.727 98.059 20.8512C96.4506 21.2226 95.0948 21.9547 94.1768 23.3723C93.5553 24.3322 93.2798 25.3637 93.0196 26.4592Z" fill="white"/>
                <path d="M159.781 18.1174C160.23 18.095 160.679 18.08 161.129 18.0725C163.526 18.0465 165.921 18.7576 167.632 20.5065C169.883 22.8086 170.09 25.7462 170.08 28.7847C165.098 28.8603 160.105 28.8003 155.121 28.8121C155.188 29.721 155.347 30.5034 155.772 31.3211C156.557 32.8351 157.86 33.8366 159.486 34.3126C161.661 34.9516 163.641 34.4795 165.563 33.4128C166.032 33.0894 166.45 32.6943 166.876 32.3161C167.666 32.7412 168.467 33.0855 169.299 33.4167C167.996 35.129 166.375 36.3704 164.27 36.9038C161.653 37.5676 158.649 37.3133 156.313 35.9036C154.24 34.6517 152.818 32.5886 152.273 30.2387C151.651 27.5549 152.085 24.4682 153.585 22.1415C155.085 19.8153 157.136 18.6895 159.781 18.1174ZM155.094 26.453C157.466 26.4465 159.841 26.4139 162.213 26.4387L167.24 26.4361C166.718 24.4817 166.172 22.5775 164.281 21.5024C163.11 20.8359 161.683 20.7223 160.361 20.856C158.792 21.1156 157.466 21.7058 156.492 23.0173C155.72 24.056 155.391 25.2168 155.094 26.453Z" fill="white"/>
                <path d="M211.516 18.3813C214.551 18.239 217.63 18.3421 220.67 18.3518C220.514 24.4275 220.653 30.5443 220.65 36.6251L217.524 36.5912L217.522 30.3486C216.028 30.3395 214.062 30.0474 212.638 30.3865C212.193 30.4921 212.114 30.7164 211.865 31.062C210.81 32.9333 209.636 34.7394 208.577 36.6121C207.396 36.6381 206.213 36.642 205.031 36.6212C206.188 34.4499 207.758 31.6866 209.289 29.8061C209.106 29.7175 208.926 29.6236 208.749 29.5271C207.414 28.7903 206.393 27.6049 206.001 26.1183C205.595 24.5685 205.816 22.7997 206.646 21.4236C207.763 19.5672 209.513 18.8535 211.516 18.3813ZM214.722 27.7288C215.645 27.721 216.587 27.7496 217.507 27.6831C217.495 25.5223 217.501 23.3615 217.524 21.2006C215.691 21.194 213.832 21.1448 212.001 21.2452C210.846 21.6071 209.944 21.9976 209.32 23.1111C208.907 23.8512 208.796 24.8278 209.075 25.6318C209.345 26.4104 209.97 26.9568 210.705 27.2893C211.947 27.8501 213.392 27.7405 214.722 27.7288Z" fill="white"/>
                <path d="M135.824 18.5491C139.783 18.4063 143.776 18.4989 147.739 18.4916L147.721 36.6229C146.733 36.6085 145.742 36.5668 144.763 36.7011L144.749 21.3425L143.069 21.4102C141.569 21.3363 140.037 21.435 138.535 21.4702C138.493 25.125 138.479 32.7016 135.919 35.4062C134.642 36.7546 133.2 36.8928 131.456 36.9072C131.443 35.9539 131.392 35.0124 131.323 34.0617C131.778 34.02 132.261 33.9887 132.704 33.8765C135.46 33.1815 135.508 24.0764 135.577 21.7807C135.604 20.886 135.406 19.2774 135.824 18.5491Z" fill="white"/>
                <path d="M200.038 18.414L200.444 18.3901C200.492 18.456 200.561 18.5109 200.591 18.5877C200.727 18.9444 200.587 34.7831 200.589 36.614L197.933 36.6323L197.738 36.5932C197.313 35.8251 197.739 20.7317 197.606 18.4501C198.417 18.4602 199.228 18.4329 200.038 18.414Z" fill="white"/>
                <path d="M197.55 11.5765L200.605 11.5674C200.572 12.6512 200.597 13.7359 200.612 14.8199L197.468 14.8436C197.514 13.7551 197.541 12.6659 197.55 11.5765Z" fill="white"/>
            </g>
            <defs>
                <clipPath id="clip0_10210_407_footer">
                    <rect width="220.338" height="48.771" fill="white" transform="translate(0.330566 0.647461)"/>
                </clipPath>
            </defs>
        </symbol>
        <symbol id="icon-youtube-footer" viewBox="0 0 25 25">
            <path d="M22.0928 7.59705C21.9789 7.17445 21.7563 6.78905 21.4472 6.47922C21.1381 6.16938 20.7532 5.94591 20.3308 5.83105C18.7648 5.40105 12.4998 5.39405 12.4998 5.39405C12.4998 5.39405 6.23584 5.38705 4.66884 5.79805C4.24677 5.9182 3.86266 6.14483 3.55341 6.45618C3.24415 6.76754 3.02013 7.15317 2.90284 7.57605C2.48984 9.14205 2.48584 12.3901 2.48584 12.3901C2.48584 12.3901 2.48184 15.654 2.89184 17.2041C3.12184 18.0611 3.79684 18.7381 4.65484 18.9691C6.23684 19.3991 12.4848 19.406 12.4848 19.406C12.4848 19.406 18.7498 19.413 20.3158 19.003C20.7383 18.8884 21.1236 18.6654 21.4335 18.3562C21.7434 18.047 21.9672 17.6623 22.0828 17.2401C22.4968 15.6751 22.4998 12.4281 22.4998 12.4281C22.4998 12.4281 22.5198 9.16305 22.0928 7.59705ZM10.4958 15.3991L10.5008 9.39905L15.7078 12.4041L10.4958 15.3991Z" fill="white"/>
        </symbol>
        <symbol id="icon-instagram-footer" viewBox="0 0 25 25">
            <path d="M12.4988 5.01495C14.9032 5.01495 15.1878 5.02564 16.1332 5.06782C17.0123 5.10663 17.4864 5.25398 17.803 5.37715C18.2215 5.53913 18.5235 5.73598 18.8362 6.04869C19.1528 6.36533 19.3458 6.66398 19.5111 7.08243C19.6343 7.39907 19.7816 7.87657 19.8204 8.75227C19.8626 9.70164 19.8733 9.98623 19.8733 12.3872C19.8733 14.7882 19.8626 15.0762 19.8204 16.0222C19.7816 16.9012 19.6343 17.3754 19.5111 17.692C19.3491 18.1105 19.1528 18.4125 18.8396 18.7252C18.5229 19.0418 18.2243 19.2347 17.8064 19.4001C17.4898 19.5233 17.0117 19.6706 16.1366 19.7094C15.1872 19.7516 14.9026 19.7623 12.5016 19.7623C10.1006 19.7623 9.81266 19.7516 8.86666 19.7094C7.98759 19.6706 7.51346 19.5233 7.19682 19.4001C6.77838 19.2381 6.47635 19.0418 6.16308 18.7286C5.84644 18.4119 5.65353 18.1133 5.48817 17.6954C5.365 17.3787 5.21765 16.9007 5.17884 16.0255C5.13666 15.0762 5.12597 14.7916 5.12597 12.3906C5.12597 9.9896 5.13666 9.70164 5.17884 8.75564C5.21765 7.87657 5.365 7.40245 5.48817 7.0858C5.65015 6.66736 5.847 6.36533 6.15971 6.05206C6.47635 5.73542 6.775 5.54251 7.19344 5.37715C7.51009 5.25398 7.98759 5.10663 8.86328 5.06782C9.80872 5.02564 10.0939 5.01495 12.4982 5.01495H12.4988ZM12.4988 3.39461C10.0556 3.39461 9.75023 3.40529 8.79017 3.44747C7.83405 3.48966 7.17657 3.64432 6.6074 3.86592C6.01348 4.09764 5.51067 4.4036 5.0118 4.9064C4.50899 5.40584 4.20303 5.90808 3.97131 6.49863C3.74972 7.07174 3.59505 7.72528 3.55287 8.6814C3.51069 9.64483 3.5 9.95023 3.5 12.3934C3.5 14.8366 3.51069 15.142 3.55287 16.102C3.59505 17.0582 3.74972 17.7156 3.97131 18.2848C4.20359 18.8787 4.50899 19.3815 5.0118 19.8804C5.51067 20.3793 6.01348 20.6892 6.60402 20.9175C7.17713 21.1391 7.83067 21.2938 8.78679 21.336C9.74629 21.3781 10.0523 21.3888 12.4954 21.3888C14.9386 21.3888 15.2446 21.3781 16.2041 21.336C17.1602 21.2938 17.8177 21.1391 18.3868 20.9175C18.9774 20.6892 19.4802 20.3798 19.9791 19.8804C20.4779 19.381 20.7878 18.8787 21.0162 18.2882C21.2378 17.7151 21.3924 17.0615 21.4346 16.1054C21.4768 15.1459 21.4875 14.84 21.4875 12.3968C21.4875 9.95361 21.4768 9.64821 21.4346 8.68815C21.3924 7.73203 21.2378 7.07455 21.0162 6.50538C20.7946 5.90752 20.4886 5.40527 19.9864 4.90584C19.4875 4.40697 18.9847 4.09707 18.3941 3.86873C17.821 3.64713 17.1675 3.49247 16.2114 3.45029C15.2485 3.40473 14.9425 3.39404 12.4994 3.39404L12.4988 3.39461Z" fill="white"/>
            <path d="M12.4985 7.77051C9.94683 7.77051 7.87598 9.84079 7.87598 12.3931C7.87598 14.9454 9.94626 17.0156 12.4985 17.0156C15.0508 17.0156 17.1211 14.9454 17.1211 12.3931C17.1211 9.84136 15.0508 7.77051 12.4985 7.77051ZM12.4985 15.3914C10.8428 15.3914 9.50026 14.0489 9.50026 12.3931C9.50026 10.7373 10.8428 9.39479 12.4985 9.39479C14.1543 9.39479 15.4968 10.7373 15.4968 12.3931C15.4968 14.0489 14.1543 15.3914 12.4985 15.3914Z" fill="white"/>
            <path d="M18.3822 7.58808C18.3822 8.18425 17.8991 8.66738 17.3029 8.66738C16.7068 8.66738 16.2236 8.18425 16.2236 7.58808C16.2236 6.99191 16.7068 6.50879 17.3029 6.50879C17.8991 6.50879 18.3822 6.99191 18.3822 7.58808Z" fill="white"/>
        </symbol>
        <symbol id="icon-facebook-footer" viewBox="0 0 25 25">
            <path d="M22.5 12.6978C22.5 7.14123 18.0229 2.63672 12.5 2.63672C6.97715 2.63672 2.5 7.14123 2.5 12.6978C2.5 17.7195 6.15684 21.8819 10.9375 22.6367V15.6061H8.39844V12.6978H10.9375V10.4812C10.9375 7.95968 12.4305 6.56684 14.7146 6.56684C15.8088 6.56684 16.9531 6.76335 16.9531 6.76335V9.23933H15.6922C14.45 9.23933 14.0625 10.0149 14.0625 10.8106V12.6978H16.8359L16.3926 15.6061H14.0625V22.6367C18.8432 21.8819 22.5 17.7197 22.5 12.6978Z" fill="white"/>
        </symbol>
    </defs>
</svg>